<svg id="Bahan_copy_6" viewBox="0 0 64 64" xmlns="http://www.w3.org/2000/svg" xmlns:xlink="http://www.w3.org/1999/xlink" data-name="Bahan copy 6"><linearGradient id="linear-gradient" gradientUnits="userSpaceOnUse" x1="6.899" x2="57.101" y1="32" y2="32"><stop offset="0" stop-color="#ffa68d"/><stop offset="1" stop-color="#fd3a84"/></linearGradient><path d="m56.25 18c-2.01-3.47-7.19-4.63-14.29-3.26-.17-.5-.35-.98-.54-1.43a3.99433 3.99433 0 0 0 -4.11-6.8 7.503 7.503 0 0 0 -5.31-2.51c-4 0-7.59 3.9-9.95 10.75-14.73847-3.023-19.98243 5.98821-9.95983 17.25007-4.76017 5.45993-6.35017 10.53993-4.34017 13.99993a7.24852 7.24852 0 0 0 4.32 3.19 4.00508 4.00508 0 0 0 7.75.41c.73-.08 1.48-.2 2.23-.35 2.36 6.85 5.95 10.75 9.95 10.75s7.6-3.91 9.95-10.76a27.69026 27.69026 0 0 0 3.27.47 4.0061 4.0061 0 0 0 7.76-.92016 6.80254 6.80254 0 0 0 3.27-2.78984c2.01-3.46.42-8.54-4.34-14 4.76-5.46 6.35-10.54 4.34-14zm-1.74 1c1.51 2.61.04 6.86-3.95 11.52a49.583 49.583 0 0 0 -6.38-5.56 49.69863 49.69863 0 0 0 -1.62-8.29c6.02-1.13 10.45-.28 11.95 2.33zm-20.04 25.93a64.99351 64.99351 0 0 0 7.48889-4.33277 45.3277 45.3277 0 0 1 -1.34889 6.31277 44.50332 44.50332 0 0 1 -6.14-1.98zm-11.07 1.97a44.22034 44.22034 0 0 1 -1.37-6.31q1.815 1.215 3.68 2.3c1.26993.72521 2.56983 1.42972 3.84 2.03a44.19585 44.19585 0 0 1 -6.15 1.98zm6.15-27.82a60.52981 60.52981 0 0 0 -7.50885 4.32275 45.30372 45.30372 0 0 1 1.35885-6.31275 46.58021 46.58021 0 0 1 6.15 1.99zm-9.97 17.25a43.15924 43.15924 0 0 1 -4.79-4.33 43.15924 43.15924 0 0 1 4.79-4.33 62.55943 62.55943 0 0 0 0 8.66zm7.13 4.82q-2.55-1.47006-5-3.21c-.18-1.98-.28-3.98-.28-5.94s.1-3.96.28-5.94c1.63-1.15 3.3-2.23 5-3.21a56.55686 56.55686 0 0 1 5.29-2.73 56.55686 56.55686 0 0 1 5.29 2.73q2.55 1.47006 5 3.21c.18 1.99.28 3.99.28 5.94 0 1.96-.1 3.95-.28 5.94q-2.445 1.74-5 3.21a56.55686 56.55686 0 0 1 -5.29 2.73 56.55686 56.55686 0 0 1 -5.29-2.73zm13.9-24.06a47.1334 47.1334 0 0 1 1.36 6.32q-1.81494-1.215-3.68-2.3c-1.27-.73-2.55-1.41-3.82-2.04a44.50332 44.50332 0 0 1 6.14-1.98zm3.81 10.58a43.15924 43.15924 0 0 1 4.79 4.33 43.15924 43.15924 0 0 1 -4.79 4.33 62.55943 62.55943 0 0 0 0-8.66zm-12.42-21.67a5.409 5.409 0 0 1 3.76 1.79 3.92205 3.92205 0 0 0 -.76 2.34 4.00528 4.00528 0 0 0 4 4c.79694-.21748.7292.44907.99 1.05007a50.54578 50.54578 0 0 0 -7.99 2.74993 49.99492 49.99492 0 0 0 -8-2.75c2.04-5.77 4.99-9.18 8-9.18zm-22.51 13c1.5-2.61 5.93-3.46 11.95-2.33a50.75646 50.75646 0 0 0 -1.63 8.31 49.37311 49.37311 0 0 0 -6.37 5.54c-3.99-4.66-5.46-8.91-3.95-11.52zm10.42 28.58a3.99395 3.99395 0 0 0 -7.69-.46 4.98772 4.98772 0 0 1 -2.74-2.12c-1.5-2.61-.03-6.86 3.96-11.52a49.583 49.583 0 0 0 6.38 5.56 49.77642 49.77642 0 0 0 1.62 8.28c-.52.11-1.03.19-1.53.26zm12.09 10.42c-3.01 0-5.96-3.41-8-9.18a49.99492 49.99492 0 0 0 8-2.75 49.99492 49.99492 0 0 0 8 2.75c-2.04 5.77-4.99 9.18-8 9.18zm22.52-13a4.63863 4.63863 0 0 1 -1.89 1.74 3.99363 3.99363 0 0 0 -7.56.95 24.86017 24.86017 0 0 1 -2.51-.36 50.75646 50.75646 0 0 0 1.63-8.31 49.37311 49.37311 0 0 0 6.37-5.54c3.99 4.66 5.46 8.91 3.96 11.52zm-16.02-13.00011c-.30962 8.59955-12.6891 8.60177-13 .00011a6.5 6.5 0 0 1 13-.00011z" fill="url(#linear-gradient)"/></svg>